<svg xmlns="http://www.w3.org/2000/svg" xmlns:xlink="http://www.w3.org/1999/xlink" width="500" zoomAndPan="magnify" viewBox="0 0 375 374.999991" height="500" preserveAspectRatio="xMidYMid meet" version="1.0"><defs><clipPath id="7fed362be0"><path d="M 92.601562 82.210938 L 282.351562 82.210938 L 282.351562 216.933594 L 92.601562 216.933594 Z M 92.601562 82.210938 " clip-rule="nonzero"/></clipPath><clipPath id="d2ee86fd78"><path d="M 92.601562 216.648438 L 282.351562 216.648438 L 282.351562 292.796875 L 92.601562 292.796875 Z M 92.601562 216.648438 " clip-rule="nonzero"/></clipPath></defs><g clip-path="url(#7fed362be0)"><path fill="#64473b" d="M 255.609375 243.089844 C 249.382812 245.0625 243.007812 245.71875 237.613281 245.488281 C 229.289062 244.972656 222.261719 243.632812 215.605469 240.6875 C 212.382812 239.261719 209.410156 237.4375 206.878906 234.953125 C 205.992188 234.082031 205.769531 233.164062 206.503906 232.015625 C 207.496094 230.472656 208.394531 228.867188 209.261719 227.242188 C 209.792969 226.246094 210.152344 225.054688 209.035156 224.285156 C 208.167969 223.683594 207.257812 224.304688 206.589844 224.964844 C 205.144531 226.382812 203.734375 227.835938 202.34375 229.304688 C 200.191406 231.578125 198.164062 233.980469 195.90625 236.144531 C 185.871094 245.757812 173.851562 249.042969 160.269531 246.917969 C 155.902344 246.238281 151.585938 245.210938 147.585938 243.210938 C 143.011719 240.921875 139.171875 237.90625 137.488281 232.792969 C 137.265625 232.105469 136.902344 231.441406 136.496094 230.839844 C 135.730469 229.691406 134.277344 229.308594 133.089844 230.054688 C 131.851562 230.839844 130.722656 231.800781 129.558594 232.699219 C 127.660156 234.160156 125.863281 235.769531 123.859375 237.066406 C 116.976562 241.535156 108.953125 241.328125 103.242188 236.667969 C 97.582031 232.042969 95.226562 223.148438 97.996094 216.023438 C 100.957031 208.414062 106.574219 203.28125 113.875 199.914062 C 119.679688 197.238281 125.886719 196.480469 132.195312 196.429688 C 141.292969 196.359375 150.160156 198.039062 158.949219 200.167969 C 166.640625 202.03125 174.214844 204.386719 182.046875 205.675781 C 200.84375 208.765625 218.769531 206.21875 235.570312 197.0625 C 241.582031 193.785156 247.226562 189.9375 250.726562 183.726562 C 251.34375 182.632812 252.339844 182.324219 253.546875 182.484375 C 259.230469 183.246094 264.105469 185.71875 268.117188 189.742188 C 284.445312 206.101562 279.449219 235.535156 255.609375 243.089844 Z M 248.96875 253.378906 C 245.949219 261.277344 243.007812 269.207031 241.601562 277.589844 C 241.148438 280.296875 239.707031 281.835938 237.085938 282.402344 C 236.367188 282.554688 235.65625 282.75 234.957031 282.972656 C 230.609375 284.351562 229.804688 283.785156 230.152344 278.914062 C 230.816406 269.617188 233.792969 260.953125 237.992188 252.679688 C 238.71875 251.246094 239.742188 250.429688 241.402344 250.3125 C 244.109375 250.121094 246.804688 249.664062 249.34375 249.832031 C 249.980469 251.414062 249.351562 252.375 248.96875 253.378906 Z M 226.398438 280.601562 C 226.554688 285.050781 226.582031 285.050781 222.515625 285.898438 C 222.335938 285.9375 222.160156 286.007812 221.980469 286.027344 C 214.382812 286.992188 214.804688 288.433594 214.574219 280.109375 C 214.308594 270.464844 215.824219 261.015625 217.730469 251.613281 C 217.910156 250.714844 218.230469 249.839844 218.519531 248.964844 C 218.855469 247.929688 219.632812 247.539062 220.652344 247.757812 C 224.765625 248.632812 228.867188 249.546875 232.855469 250.421875 C 233.339844 252.332031 232.1875 253.488281 231.675781 254.796875 C 229.042969 261.523438 227.058594 268.398438 226.5 275.628906 C 226.371094 277.277344 226.339844 278.945312 226.398438 280.601562 Z M 210.984375 284.929688 C 211.125 286.835938 210.839844 287.347656 209.023438 287.484375 C 205.171875 287.769531 201.308594 287.90625 197.449219 288.03125 C 196.140625 288.070312 195.648438 287.375 195.757812 285.808594 C 196.046875 281.769531 196.378906 277.730469 196.621094 274.617188 C 196.875 264.292969 196.910156 254.90625 195.164062 245.621094 C 194.882812 244.132812 195.175781 243.132812 196.320312 242.269531 C 196.613281 242.050781 196.890625 241.808594 197.167969 241.566406 C 198.839844 240.128906 200.328125 237.890625 202.226562 237.457031 C 204.410156 236.960938 205.445312 240.03125 207.28125 241.160156 C 209.164062 242.308594 210.996094 243.539062 212.863281 244.710938 C 214.699219 245.867188 214.894531 246.121094 214.242188 248.292969 C 210.617188 260.285156 210.089844 272.539062 210.984375 284.929688 Z M 191.917969 285.394531 C 191.652344 287.878906 191.300781 288.234375 188.816406 288.175781 C 185.144531 288.089844 181.46875 287.929688 177.800781 287.671875 C 174.824219 287.460938 174.605469 287.082031 174.644531 283.816406 C 174.683594 280.507812 174.707031 277.199219 174.707031 273.890625 C 174.714844 267.066406 174.160156 260.308594 172.171875 253.726562 C 172.082031 253.425781 172.25 253.042969 172.347656 252.324219 C 178.511719 251.21875 184.675781 249.59375 190.175781 246.605469 C 191.632812 247.394531 191.480469 248.628906 191.59375 249.625 C 192.949219 261.535156 193.195312 273.460938 191.917969 285.394531 Z M 170.144531 284.839844 C 170.078125 285.890625 169.3125 286.460938 168.269531 286.433594 C 163.824219 286.3125 159.527344 285.160156 155.164062 284.449219 C 154.179688 284.289062 153.65625 283.433594 153.542969 282.453125 C 153.433594 281.539062 153.410156 280.613281 153.390625 279.695312 C 153.191406 270.050781 151.773438 260.617188 148.578125 251.484375 C 148.359375 250.847656 147.820312 250.125 148.488281 249.511719 C 149.125 248.921875 149.898438 249.324219 150.578125 249.542969 C 155.34375 251.09375 160.230469 251.976562 165.234375 252.070312 C 167.046875 252.105469 167.882812 253.046875 168.292969 254.621094 C 169.457031 259.101562 169.964844 263.675781 170.230469 268.28125 C 170.378906 270.855469 170.394531 273.4375 170.496094 277.074219 C 170.417969 278.957031 170.332031 281.902344 170.144531 284.839844 Z M 148.746094 281.628906 C 148.671875 282.449219 148.21875 283.070312 147.351562 282.902344 C 142.652344 282.003906 138.015625 280.867188 133.582031 279.027344 C 132.125 278.421875 131.261719 277.386719 131.039062 275.734375 C 130.695312 273.183594 130.175781 270.660156 129.753906 268.121094 C 128.332031 259.574219 126.074219 251.261719 122.605469 242.976562 C 126.351562 240.414062 129.648438 238.15625 133.261719 235.679688 C 135.214844 239.140625 137.335938 242.082031 140.214844 244.414062 C 140.878906 244.953125 141.304688 245.882812 141.632812 246.714844 C 145.753906 257.242188 148.136719 268.152344 148.8125 279.433594 C 148.855469 280.160156 148.816406 280.902344 148.746094 281.628906 Z M 116.488281 176.285156 C 118.832031 171.605469 123.050781 168.316406 129.085938 166.335938 C 134.183594 176.175781 142.8125 180.066406 152.796875 182.054688 C 159.070312 183.304688 165.257812 182.988281 171.445312 181.855469 C 182.707031 179.796875 193.566406 176.335938 204.195312 172.125 C 210.871094 169.480469 217.503906 166.742188 224.199219 164.160156 C 226.417969 163.300781 228.746094 162.652344 231.074219 162.144531 C 235.347656 161.203125 239.085938 162.390625 242.226562 165.421875 C 244.652344 167.765625 246.335938 170.5625 247.574219 173.699219 C 249.179688 177.777344 248.160156 181.304688 245.488281 184.464844 C 243.453125 186.871094 240.894531 188.707031 238.265625 190.421875 C 228.679688 196.683594 218.0625 200.046875 206.816406 201.671875 C 194.726562 203.417969 182.960938 201.46875 171.304688 198.5 C 162.742188 196.320312 154.179688 194.199219 145.398438 193.015625 C 137.488281 191.953125 129.628906 191.777344 121.769531 193.261719 C 118.769531 193.824219 117.746094 194.019531 115.714844 190.058594 C 113.296875 185.351562 114.265625 180.722656 116.488281 176.285156 Z M 135.820312 145.554688 C 139.675781 141.722656 144.390625 139.96875 149.742188 139.652344 C 151.542969 139.546875 152.320312 140.769531 153.214844 141.953125 C 157.707031 147.894531 163.65625 151.683594 170.703125 153.945312 C 177.140625 156.015625 183.402344 155.726562 189.585938 153.078125 C 195.96875 150.34375 200.632812 145.84375 203.488281 139.5 C 203.941406 138.496094 204.351562 137.464844 204.734375 136.429688 C 205.113281 135.410156 205.933594 135.003906 206.886719 135.082031 C 209.265625 135.277344 211.707031 135.328125 214 135.917969 C 218.6875 137.121094 222.933594 139.355469 226.714844 142.398438 C 229.039062 144.269531 230.90625 146.519531 232.167969 149.265625 C 233.140625 151.382812 233.28125 153.527344 232.574219 155.71875 C 232.160156 157.003906 231.398438 157.953125 229.976562 158.316406 C 220.109375 160.84375 211.003906 165.390625 201.542969 169.003906 C 191.03125 173.023438 180.363281 176.515625 169.214844 178.375 C 165.917969 178.925781 162.609375 178.9375 159.734375 179.019531 C 153.917969 178.6875 148.695312 177.667969 143.734375 175.519531 C 139.574219 173.722656 136.117188 171.050781 133.601562 167.242188 C 128.835938 160.019531 129.703125 151.628906 135.820312 145.554688 Z M 153.140625 125.648438 C 153.746094 120.570312 156.503906 117.222656 161.269531 115.457031 C 163.621094 114.585938 165.917969 114.589844 168.265625 115.546875 C 170.359375 116.398438 172.121094 117.679688 173.710938 119.246094 C 177.015625 122.507812 177.011719 122.507812 180.25 119.023438 C 181.125 118.078125 181.960938 117.078125 182.929688 116.238281 C 188.960938 111.003906 196.496094 112.691406 199.703125 119.957031 C 200.8125 122.472656 201.601562 126.722656 201.5 129.667969 C 201.105469 141.460938 191.71875 150.964844 179.941406 151.492188 C 179.757812 151.5 179.574219 151.503906 179.386719 151.5 C 171.472656 151.3125 158.730469 145.113281 154.597656 135.359375 C 153.269531 132.230469 152.738281 129.019531 153.140625 125.648438 Z M 261.664062 180.476562 C 259.441406 179.5 257.125 178.902344 254.75 178.609375 C 252.875 178.378906 251.53125 177.875 251.601562 175.65625 C 251.621094 175.113281 251.464844 174.558594 251.324219 174.027344 C 249.472656 167.085938 245.8125 161.628906 238.925781 158.757812 C 236.957031 157.9375 236.8125 157.835938 237.191406 155.457031 C 238.011719 150.273438 236.03125 146.078125 232.890625 142.230469 C 231.242188 140.214844 229.25 138.574219 227.078125 137.160156 C 221.566406 133.570312 215.605469 131.34375 208.953125 131.121094 C 206.242188 131.027344 206.199219 130.941406 205.925781 128.417969 C 205.527344 124.734375 204.921875 121.113281 203.242188 117.757812 C 199.238281 109.738281 191.109375 107.199219 183.210938 111.449219 C 181.941406 112.128906 181.03125 113.484375 179.042969 113.546875 C 178.792969 111.210938 178.542969 108.867188 178.292969 106.519531 C 177.867188 102.460938 176.984375 98.503906 175.226562 94.808594 C 172.582031 89.246094 168.433594 85.246094 162.648438 83 C 160.703125 82.242188 158.699219 81.976562 156.679688 82.425781 C 154.195312 82.980469 152.300781 84.34375 151.574219 86.933594 C 151.011719 88.945312 152.015625 90.605469 154.097656 91.023438 C 154.863281 91.175781 155.699219 90.839844 155.363281 89.886719 C 154.972656 88.792969 154.515625 87.796875 155.582031 86.90625 C 156.460938 86.179688 157.5625 85.824219 158.679688 85.964844 C 160.332031 86.167969 161.890625 86.730469 163.355469 87.566406 C 166.984375 89.621094 169.863281 92.429688 171.667969 96.195312 C 174.183594 101.445312 175.101562 107.058594 174.988281 112.847656 C 174.96875 113.941406 174.179688 114.289062 173.039062 113.726562 C 172.378906 113.402344 171.769531 112.976562 171.113281 112.648438 C 166.25 110.234375 161.492188 110.578125 156.859375 113.269531 C 150.316406 117.070312 148.390625 123.125 148.78125 130.222656 C 148.859375 131.683594 149.273438 133.128906 149.539062 134.578125 C 149.75 135.722656 149.160156 136.292969 148.125 136.484375 C 147.042969 136.6875 145.933594 136.773438 144.851562 136.992188 C 134.753906 139.027344 127.40625 147.949219 127.332031 158.253906 C 127.324219 159.171875 127.375 160.09375 127.425781 161.015625 C 127.488281 162.078125 126.953125 162.730469 126.042969 163.152344 C 125.207031 163.539062 124.347656 163.882812 123.542969 164.324219 C 119.421875 166.605469 115.992188 169.71875 113.675781 173.785156 C 109.757812 180.679688 109.234375 187.746094 113.941406 195.125 C 111.960938 196.203125 110.5 196.953125 109.082031 197.78125 C 103.390625 201.109375 98.773438 205.566406 95.628906 211.371094 C 91.183594 219.574219 91.707031 227.695312 96.703125 235.476562 C 100.097656 240.761719 105.109375 243.628906 111.339844 244.28125 C 112.984375 244.453125 114.65625 244.410156 116.3125 244.359375 C 117.628906 244.324219 118.433594 244.980469 118.808594 246.101562 C 119.914062 249.417969 121 252.75 121.984375 256.109375 C 123.910156 262.65625 125.21875 269.355469 126.328125 276.078125 C 126.9375 279.785156 128.855469 282.140625 132.289062 283.304688 C 135.601562 284.425781 138.917969 285.59375 142.316406 286.390625 C 163.238281 291.28125 184.367188 293.980469 205.929688 292.394531 C 217.191406 291.570312 228.214844 289.6875 239.027344 286.398438 C 242.816406 285.246094 244.828125 283.183594 245.4375 279.121094 C 246.722656 270.515625 249.792969 262.394531 252.914062 254.296875 C 254.453125 250.300781 256.777344 247.601562 260.976562 245.925781 C 268.363281 242.980469 274.152344 237.847656 277.855469 230.671875 C 282.058594 222.523438 283.570312 213.863281 281.378906 204.925781 C 278.648438 193.800781 272.492188 185.207031 261.664062 180.476562 " fill-opacity="1" fill-rule="nonzero"/></g><g clip-path="url(#d2ee86fd78)"><path fill="#64473b" d="M 255.609375 243.039062 C 249.382812 245.011719 243.007812 245.667969 237.613281 245.4375 C 229.289062 244.921875 222.261719 243.582031 215.605469 240.636719 C 212.382812 239.210938 209.410156 237.386719 206.878906 234.902344 C 205.992188 234.03125 205.769531 233.113281 206.503906 231.96875 C 207.496094 230.421875 208.394531 228.816406 209.261719 227.191406 C 209.792969 226.195312 210.152344 225.007812 209.035156 224.238281 C 208.167969 223.636719 207.257812 224.257812 206.589844 224.914062 C 205.144531 226.332031 203.734375 227.785156 202.34375 229.253906 C 200.191406 231.527344 198.164062 233.929688 195.90625 236.09375 C 185.871094 245.707031 173.851562 248.992188 160.269531 246.867188 C 155.902344 246.1875 151.585938 245.160156 147.585938 243.160156 C 143.011719 240.871094 139.171875 237.855469 137.488281 232.742188 C 137.265625 232.054688 136.902344 231.390625 136.496094 230.789062 C 135.730469 229.640625 134.277344 229.257812 133.089844 230.003906 C 131.851562 230.789062 130.722656 231.75 129.558594 232.648438 C 127.660156 234.109375 125.863281 235.71875 123.859375 237.015625 C 116.976562 241.484375 108.953125 241.277344 103.242188 236.617188 C 97.582031 231.992188 95.226562 223.097656 97.996094 215.976562 C 100.957031 208.363281 106.574219 203.230469 113.875 199.863281 C 119.679688 197.1875 125.886719 196.433594 132.195312 196.378906 C 141.292969 196.308594 150.160156 197.988281 158.949219 200.117188 C 166.640625 201.980469 174.214844 204.335938 182.046875 205.625 C 200.84375 208.714844 218.769531 206.167969 235.570312 197.011719 C 241.582031 193.734375 247.226562 189.886719 250.726562 183.675781 C 251.34375 182.582031 252.339844 182.273438 253.546875 182.433594 C 259.230469 183.195312 264.105469 185.667969 268.117188 189.691406 C 284.445312 206.050781 279.449219 235.484375 255.609375 243.039062 Z M 248.96875 253.328125 C 245.949219 261.226562 243.007812 269.160156 241.601562 277.539062 C 241.148438 280.246094 239.707031 281.785156 237.085938 282.351562 C 236.367188 282.503906 235.65625 282.699219 234.957031 282.921875 C 230.609375 284.300781 229.804688 283.734375 230.152344 278.863281 C 230.816406 269.566406 233.792969 260.902344 237.992188 252.628906 C 238.71875 251.195312 239.742188 250.378906 241.402344 250.261719 C 244.109375 250.070312 246.804688 249.613281 249.34375 249.785156 C 249.980469 251.363281 249.351562 252.324219 248.96875 253.328125 Z M 226.398438 280.550781 C 226.554688 285 226.582031 285 222.515625 285.851562 C 222.335938 285.886719 222.160156 285.957031 221.980469 285.980469 C 214.382812 286.941406 214.804688 288.386719 214.574219 280.058594 C 214.308594 270.414062 215.824219 260.964844 217.730469 251.5625 C 217.910156 250.664062 218.230469 249.789062 218.519531 248.917969 C 218.855469 247.882812 219.632812 247.488281 220.652344 247.707031 C 224.765625 248.582031 228.867188 249.5 232.855469 250.371094 C 233.339844 252.28125 232.1875 253.4375 231.675781 254.746094 C 229.042969 261.472656 227.058594 268.347656 226.5 275.578125 C 226.371094 277.226562 226.339844 278.894531 226.398438 280.550781 Z M 210.984375 284.878906 C 211.125 286.785156 210.839844 287.296875 209.023438 287.433594 C 205.171875 287.71875 201.308594 287.855469 197.449219 287.980469 C 196.140625 288.019531 195.648438 287.324219 195.757812 285.757812 C 196.046875 281.71875 196.378906 277.679688 196.621094 274.566406 C 196.875 264.242188 196.910156 254.855469 195.164062 245.570312 C 194.882812 244.082031 195.175781 243.082031 196.320312 242.222656 C 196.613281 242 196.890625 241.757812 197.167969 241.515625 C 198.839844 240.078125 200.328125 237.839844 202.226562 237.40625 C 204.410156 236.910156 205.445312 239.980469 207.28125 241.109375 C 209.164062 242.261719 210.996094 243.488281 212.863281 244.660156 C 214.699219 245.816406 214.894531 246.070312 214.242188 248.242188 C 210.617188 260.234375 210.089844 272.492188 210.984375 284.878906 Z M 191.917969 285.34375 C 191.652344 287.828125 191.300781 288.183594 188.816406 288.125 C 185.144531 288.039062 181.46875 287.878906 177.800781 287.621094 C 174.824219 287.410156 174.605469 287.035156 174.644531 283.765625 C 174.683594 280.457031 174.707031 277.148438 174.707031 273.839844 C 174.714844 267.015625 174.160156 260.257812 172.171875 253.679688 C 172.082031 253.375 172.25 252.992188 172.347656 252.273438 C 178.511719 251.167969 184.675781 249.542969 190.175781 246.554688 C 191.632812 247.34375 191.480469 248.578125 191.59375 249.574219 C 192.949219 261.484375 193.195312 273.410156 191.917969 285.34375 Z M 170.144531 284.789062 C 170.078125 285.839844 169.3125 286.414062 168.269531 286.382812 C 163.824219 286.261719 159.527344 285.109375 155.164062 284.398438 C 154.179688 284.238281 153.65625 283.382812 153.542969 282.402344 C 153.433594 281.488281 153.410156 280.5625 153.390625 279.644531 C 153.191406 270 151.773438 260.566406 148.578125 251.433594 C 148.359375 250.800781 147.820312 250.074219 148.488281 249.460938 C 149.125 248.871094 149.898438 249.273438 150.578125 249.492188 C 155.34375 251.042969 160.230469 251.925781 165.234375 252.019531 C 167.046875 252.054688 167.882812 252.996094 168.292969 254.570312 C 169.457031 259.050781 169.964844 263.628906 170.230469 268.230469 C 170.378906 270.804688 170.394531 273.386719 170.496094 277.027344 C 170.417969 278.90625 170.332031 281.851562 170.144531 284.789062 Z M 148.746094 281.578125 C 148.671875 282.398438 148.21875 283.019531 147.351562 282.855469 C 142.652344 281.957031 138.015625 280.816406 133.582031 278.980469 C 132.125 278.371094 131.261719 277.335938 131.039062 275.683594 C 130.695312 273.132812 130.175781 270.609375 129.753906 268.070312 C 128.332031 259.527344 126.074219 251.210938 122.605469 242.925781 C 126.351562 240.363281 129.648438 238.105469 133.261719 235.628906 C 135.214844 239.089844 137.335938 242.035156 140.214844 244.363281 C 140.878906 244.902344 141.304688 245.832031 141.632812 246.664062 C 145.753906 257.191406 148.136719 268.101562 148.8125 279.382812 C 148.855469 280.113281 148.816406 280.851562 148.746094 281.578125 Z M 116.488281 176.234375 C 118.832031 171.554688 123.050781 168.265625 129.085938 166.285156 C 134.183594 176.125 142.8125 180.015625 152.796875 182.003906 C 159.070312 183.253906 165.257812 182.9375 171.445312 181.804688 C 182.707031 179.746094 193.566406 176.285156 204.195312 172.074219 C 210.871094 169.429688 217.503906 166.691406 224.199219 164.109375 C 226.417969 163.25 228.746094 162.605469 231.074219 162.09375 C 235.347656 161.15625 239.085938 162.339844 242.226562 165.375 C 244.652344 167.714844 246.335938 170.511719 247.574219 173.648438 C 249.179688 177.730469 248.160156 181.253906 245.488281 184.414062 C 243.453125 186.820312 240.894531 188.65625 238.265625 190.371094 C 228.679688 196.632812 218.0625 199.996094 206.816406 201.621094 C 194.726562 203.367188 182.960938 201.417969 171.304688 198.449219 C 162.742188 196.269531 154.179688 194.148438 145.398438 192.964844 C 137.488281 191.902344 129.628906 191.726562 121.769531 193.210938 C 118.769531 193.773438 117.746094 193.96875 115.714844 190.007812 C 113.296875 185.300781 114.265625 180.671875 116.488281 176.234375 Z M 135.820312 145.503906 C 139.675781 141.671875 144.390625 139.917969 149.742188 139.601562 C 151.542969 139.496094 152.320312 140.71875 153.214844 141.902344 C 157.707031 147.84375 163.65625 151.632812 170.703125 153.898438 C 177.140625 155.964844 183.402344 155.675781 189.585938 153.027344 C 195.96875 150.292969 200.632812 145.792969 203.488281 139.449219 C 203.941406 138.445312 204.351562 137.414062 204.734375 136.378906 C 205.113281 135.359375 205.933594 134.953125 206.886719 135.03125 C 209.265625 135.226562 211.707031 135.277344 214 135.867188 C 218.6875 137.070312 222.933594 139.304688 226.714844 142.347656 C 229.039062 144.21875 230.90625 146.46875 232.167969 149.214844 C 233.140625 151.332031 233.28125 153.476562 232.574219 155.667969 C 232.160156 156.953125 231.398438 157.902344 229.976562 158.265625 C 220.109375 160.792969 211.003906 165.339844 201.542969 168.953125 C 191.03125 172.972656 180.363281 176.464844 169.214844 178.324219 C 165.917969 178.875 162.609375 178.886719 159.734375 178.972656 C 153.917969 178.636719 148.695312 177.617188 143.734375 175.46875 C 139.574219 173.671875 136.117188 171 133.601562 167.191406 C 128.835938 159.96875 129.703125 151.582031 135.820312 145.503906 Z M 153.140625 125.597656 C 153.746094 120.523438 156.503906 117.171875 161.269531 115.40625 C 163.621094 114.535156 165.917969 114.539062 168.265625 115.496094 C 170.359375 116.347656 172.121094 117.628906 173.710938 119.195312 C 177.015625 122.457031 177.011719 122.457031 180.25 118.972656 C 181.125 118.027344 181.960938 117.027344 182.929688 116.1875 C 188.960938 110.953125 196.496094 112.640625 199.703125 119.90625 C 200.8125 122.421875 201.601562 126.675781 201.5 129.617188 C 201.105469 141.410156 191.71875 150.914062 179.941406 151.441406 C 179.757812 151.453125 179.574219 151.453125 179.386719 151.449219 C 171.472656 151.265625 158.730469 145.0625 154.597656 135.3125 C 153.269531 132.179688 152.738281 128.972656 153.140625 125.597656 Z M 261.664062 180.425781 C 259.441406 179.449219 257.125 178.851562 254.75 178.558594 C 252.875 178.332031 251.53125 177.824219 251.601562 175.605469 C 251.621094 175.0625 251.464844 174.507812 251.324219 173.976562 C 249.472656 167.035156 245.8125 161.578125 238.925781 158.710938 C 236.957031 157.886719 236.8125 157.785156 237.191406 155.40625 C 238.011719 150.222656 236.03125 146.027344 232.890625 142.179688 C 231.242188 140.164062 229.25 138.523438 227.078125 137.109375 C 221.566406 133.519531 215.605469 131.292969 208.953125 131.070312 C 206.242188 130.976562 206.199219 130.890625 205.925781 128.371094 C 205.527344 124.683594 204.921875 121.066406 203.242188 117.707031 C 199.238281 109.6875 191.109375 107.148438 183.210938 111.398438 C 181.941406 112.078125 181.03125 113.433594 179.042969 113.496094 C 178.792969 111.160156 178.542969 108.816406 178.292969 106.46875 C 177.867188 102.410156 176.984375 98.457031 175.226562 94.757812 C 172.582031 89.199219 168.433594 85.195312 162.648438 82.949219 C 160.703125 82.191406 158.699219 81.925781 156.679688 82.375 C 154.195312 82.929688 152.300781 84.292969 151.574219 86.882812 C 151.011719 88.894531 152.015625 90.554688 154.097656 90.972656 C 154.863281 91.125 155.699219 90.789062 155.363281 89.839844 C 154.972656 88.746094 154.515625 87.746094 155.582031 86.855469 C 156.460938 86.128906 157.5625 85.773438 158.679688 85.914062 C 160.332031 86.117188 161.890625 86.679688 163.355469 87.515625 C 166.984375 89.574219 169.863281 92.378906 171.667969 96.144531 C 174.183594 101.394531 175.101562 107.007812 174.988281 112.796875 C 174.96875 113.890625 174.179688 114.242188 173.039062 113.675781 C 172.378906 113.351562 171.769531 112.925781 171.113281 112.597656 C 166.25 110.183594 161.492188 110.527344 156.859375 113.21875 C 150.316406 117.023438 148.390625 123.074219 148.78125 130.175781 C 148.859375 131.632812 149.273438 133.078125 149.539062 134.527344 C 149.75 135.671875 149.160156 136.242188 148.125 136.4375 C 147.042969 136.636719 145.933594 136.722656 144.851562 136.941406 C 134.753906 138.976562 127.40625 147.898438 127.332031 158.203125 C 127.324219 159.125 127.375 160.042969 127.425781 160.964844 C 127.488281 162.027344 126.953125 162.683594 126.042969 163.101562 C 125.207031 163.492188 124.347656 163.832031 123.542969 164.273438 C 119.421875 166.554688 115.992188 169.667969 113.675781 173.734375 C 109.757812 180.628906 109.234375 187.695312 113.941406 195.074219 C 111.960938 196.152344 110.5 196.902344 109.082031 197.730469 C 103.390625 201.058594 98.773438 205.515625 95.628906 211.320312 C 91.183594 219.523438 91.707031 227.644531 96.703125 235.429688 C 100.097656 240.710938 105.109375 243.578125 111.339844 244.230469 C 112.984375 244.402344 114.65625 244.359375 116.3125 244.3125 C 117.628906 244.273438 118.433594 244.929688 118.808594 246.050781 C 119.914062 249.371094 121 252.703125 121.984375 256.058594 C 123.910156 262.605469 125.21875 269.304688 126.328125 276.03125 C 126.9375 279.734375 128.855469 282.089844 132.289062 283.253906 C 135.601562 284.375 138.917969 285.546875 142.316406 286.339844 C 163.238281 291.230469 184.367188 293.929688 205.929688 292.34375 C 217.191406 291.519531 228.214844 289.636719 239.027344 286.347656 C 242.816406 285.195312 244.828125 283.132812 245.4375 279.070312 C 246.722656 270.464844 249.792969 262.34375 252.914062 254.246094 C 254.453125 250.25 256.777344 247.550781 260.976562 245.875 C 268.363281 242.929688 274.152344 237.796875 277.855469 230.621094 C 282.058594 222.472656 283.570312 213.816406 281.378906 204.875 C 278.648438 193.75 272.492188 185.15625 261.664062 180.425781 " fill-opacity="1" fill-rule="nonzero"/></g></svg>